<svg xmlns="http://www.w3.org/2000/svg" xmlns:xlink="http://www.w3.org/1999/xlink" width="64.71" height="67.208" viewBox="0 0 64.71 67.208"><defs><style>.a{fill:none;}.b{clip-path:url(#a);}.c{fill:#efebdd;}</style><clipPath id="a"><rect class="a" width="64.71" height="67.208"/></clipPath></defs><g transform="translate(32.355 33.604)"><g class="b" transform="translate(-32.355 -33.604)"><path class="c" d="M9.405,37.17C3.78,37.755,0,33.975,0,27.765c0-5.4,1.8-9,5.175-11.205s6.8-1.98,9.585.585l15.975,16.2-.585,1.62Zm1.98,11.97,19.17-13.365.99.81L28.17,59.76c-.585,4.59-3.015,6.975-6.8,7.38a10.611,10.611,0,0,1-9.405-3.2C6.57,59.13,6.8,52.155,11.385,49.14m20.16-16.38L21.96,11.79C20.385,4.41,24.57,0,32.355,0,40.95,0,44.73,6.39,42.57,11.79L33.165,32.76ZM42.75,67.14c-3.6-.585-5.58-2.61-6.21-6.39L32.76,36.945l1.215-.99L53.145,48.96c5,3.78,4.41,10.8-1.215,15.39a11.61,11.61,0,0,1-9.18,2.79M34.56,34.965l-.405-1.62,15.8-16.2c2.61-2.61,5.805-2.79,9.405-.585s5.4,5.805,5.4,11.385-3.015,9.405-7.83,9.225Z"/></g></g></svg>